<svg
    xmlns="http://www.w3.org/2000/svg"
    viewBox="0 0 100 100"
    id="vector">
    <path
        id="path"
        d="M 24.26 4.17 C 25.28 3.68 26.44 3.49 26.44 3.49 L 47.64 0.24 C 47.64 0.24 48.76 0.01 49.68 0.02 C 50.304 0.038 50.925 0.125 51.53 0.28 L 72.11 4.42 C 72.11 4.42 73.9 4.65 75.21 5.29 C 76.52 5.93 77.73 7.15 77.73 7.15 L 89.21 17.28 C 89.21 17.28 90.03 17.86 90.49 18.93 C 90.94 20 90.93 21.34 90.93 21.34 L 82.32 75.18 L 76.19 89.65 C 76.19 89.65 75.92 90.53 75.21 91.19 C 74.5 91.85 73.48 92.17 73.48 92.17 L 50.72 99.33 C 50.72 99.33 49.36 99.76 47.86 99.72 C 46.36 99.68 45.06 99.17 45.06 99.17 L 25.04 92.73 C 25.04 92.73 23.71 92.54 22.52 91.43 C 21.32 90.3 20.53 88.5 20.53 88.5 L 12.53 71.21 L 9.37 21.2 C 9.37 21.2 9.15 19.49 9.66 18.1 C 10.17 16.72 11.46 15.54 11.46 15.54 L 22.58 5.34 C 22.58 5.34 23.25 4.66 24.26 4.18 Z"
        fill="#000000"
        fill-rule="evenodd"/>
    <path
        id="path_1"
        d="M 74.54 6.1 L 69.91 12.78 C 69.91 12.78 69.67 13.56 69.78 13.91 C 69.89 14.26 70.75 14.67 70.75 14.67 L 88.25 18.39 L 74.55 6.1 Z"
        fill="#4a4a4a"
        fill-rule="evenodd"/>
    <path
        id="path_2"
        d="M 67.8 17.01 C 68.32 16.81 69.33 16.9 69.33 16.9 L 87.6 20.88 L 81.9 31.33 L 62.3 26.89 C 62.3 26.89 61.8 26.72 61.65 26.17 C 61.5 25.62 61.85 25.2 61.85 25.2 L 66.72 17.96 C 66.72 17.96 67.3 17.22 67.81 17.01 Z"
        fill="#ffffff"
        fill-rule="evenodd"/>
    <path
        id="path_3"
        d="M 59.2 29.18 C 58.47 29.46 58.21 29.89 58.21 29.89 L 51.2 39.76 L 79.14 33.24 L 60.42 29.04 C 60.42 29.04 59.92 28.89 59.2 29.18 Z"
        fill="#4a4a4a"
        fill-rule="evenodd"/>
    <path
        id="path_4"
        d="M 53.28 1.48 L 47.02 8.72 C 47.02 8.72 46.94 9.1 47.02 9.38 C 47.1 9.65 47.36 9.91 47.36 9.91 L 63.58 13.56 C 63.58 13.56 64.37 13.64 65.16 13.32 C 65.95 13 66.12 12.55 66.12 12.55 L 71.09 5.14 L 53.28 1.48 Z"
        fill="#ffffff"
        fill-rule="evenodd"/>
    <path
        id="path_5"
        d="M 44.58 12.15 C 45.07 11.97 46.01 11.92 46.01 11.92 L 61.98 15.47 C 61.98 15.47 62.6 15.62 62.9 16.05 C 63.2 16.48 62.94 16.85 62.94 16.85 L 57.56 24.32 C 57.56 24.32 57.19 24.89 56.6 25.06 C 56.01 25.23 55.05 25.22 55.05 25.22 L 38.16 21.32 C 38.16 21.32 37.49 21.02 37.35 20.59 C 37.21 20.15 37.62 19.66 37.62 19.66 L 43.55 12.87 C 43.55 12.87 44.1 12.34 44.58 12.15 Z"
        fill="#ffffff"
        fill-rule="evenodd"/>
    <path
        id="path_6"
        d="M 34.92 23.5 C 35.51 23.33 36.37 23.43 36.37 23.43 L 53.8 27.6 C 53.8 27.6 54.33 27.63 54.53 28.07 C 54.73 28.51 54.46 29.05 54.46 29.05 L 53.81 29.97 L 46.46 39.31 L 25.56 33.61 L 33.87 24.22 C 33.87 24.22 34.32 23.67 34.91 23.51 Z"
        fill="#ffffff"
        fill-rule="evenodd"/>
    <path
        id="path_7"
        d="M 11.68 17.36 L 29.55 21.71 C 29.55 21.71 30.28 22.11 30.43 22.34 C 30.58 22.57 30.18 23.24 30.18 23.24 L 21.58 32.29 L 11.68 17.36 Z"
        fill="#4a4a4a"
        fill-rule="evenodd"/>
    <path
        id="path_8"
        d="M 13.46 15.4 L 22.66 6.87 L 38.54 10.3 C 38.54 10.3 39.31 10.5 39.64 11.01 C 39.96 11.52 39.6 11.95 39.6 11.95 L 33.77 18.37 C 33.77 18.37 33.07 19.11 32.3 19.32 C 31.53 19.54 30.28 19.32 30.28 19.32 L 13.46 15.4 Z"
        fill="#ffffff"
        fill-rule="evenodd"/>
    <path
        id="path_9"
        d="M 25.52 4.42 L 40.78 7.98 C 41.341 8.148 41.939 8.148 42.5 7.98 C 43.47 7.71 43.8 7.12 43.8 7.12 L 49.68 0.51 L 25.52 4.42 Z"
        fill="#4a4a4a"
        fill-rule="evenodd"/>
    <path
        id="path_10"
        d="M 25 37.24 L 26.85 37.7 L 45.67 42.49 L 45.24 54.61 L 45.11 58.02 C 45.11 58.02 44.91 59.28 44.49 59.71 C 44.06 60.14 42.72 59.71 42.72 59.71 L 26.96 55.55 C 26.96 55.55 26.16 55.27 25.71 54.55 C 25.27 53.82 25.27 52.77 25.27 52.77 L 25.03 39.34 L 25 37.24 Z"
        fill="#4a4a4a"
        fill-rule="evenodd"/>
    <path
        id="path_11"
        d="M 51.71 42.81 L 50.93 58.95 C 50.93 58.95 50.93 60.09 51.2 60.38 C 51.48 60.66 52.33 60.38 52.33 60.38 L 76.82 54.08 C 76.82 54.08 77.51 53.92 77.94 53.35 C 78.233 52.911 78.424 52.412 78.5 51.89 L 80.05 35.86 L 51.71 42.81 Z"
        fill="#4a4a4a"
        fill-rule="evenodd"/>
    <path
        id="path_12"
        d="M 25.43 59.47 C 24.9 59.85 24.91 60.64 24.91 60.64 L 25.1 71.8 C 25.1 71.8 25.1 73.2 25.53 73.9 C 25.95 74.6 26.97 74.88 26.97 74.88 L 42.51 79.23 C 42.51 79.23 43.77 79.6 44.32 79.27 C 44.87 78.93 44.82 77.83 44.82 77.83 L 45.2 66.3 C 45.2 66.3 45.23 65.1 44.69 64.38 C 44.15 63.66 43.07 63.48 43.07 63.48 L 26.89 59.23 C 26.89 59.23 25.97 59.1 25.44 59.48 Z"
        fill="#4a4a4a"
        fill-rule="evenodd"/>
    <path
        id="path_13"
        d="M 51.12 65.25 C 50.56 65.98 50.65 67.05 50.65 67.05 L 50.38 77.86 C 50.38 77.86 50.22 79.32 50.65 79.71 C 51.08 80.11 52.41 79.71 52.41 79.71 L 73.91 74.09 C 73.91 74.09 75.17 73.84 75.83 73.14 C 76.5 72.43 76.47 71.36 76.47 71.36 L 77.73 60.57 C 77.73 60.57 78 59 77.51 58.52 C 77.01 58.05 75.57 58.51 75.57 58.51 L 52.74 64.3 C 52.74 64.3 51.67 64.51 51.12 65.25 Z"
        fill="#4a4a4a"
        fill-rule="evenodd"/>
    <path
        id="path_14"
        d="M 26.08 78.52 C 25.63 78.89 25.68 79.97 25.68 79.97 L 25.68 92.07 C 25.68 92.07 44.42 97.87 44.42 97.6 C 44.42 97.6 44.78 89.14 44.86 85.17 C 44.873 84.456 44.66 83.755 44.25 83.17 C 43.87 82.64 42.86 82.34 42.86 82.34 L 27.6 78.36 C 27.6 78.36 26.53 78.14 26.09 78.52 Z"
        fill="#4a4a4a"
        fill-rule="evenodd"/>
    <path
        id="path_15"
        d="M 51.22 84.99 C 50.74 85.59 50.59 86.34 50.59 86.34 L 50.13 98.35 L 74.2 91.32 L 75.61 79.7 C 75.61 79.7 75.83 78.16 75.44 77.75 C 75.05 77.33 73.8 77.75 73.8 77.75 L 52.7 83.72 C 52.7 83.72 51.7 84.39 51.22 84.99 Z"
        fill="#4a4a4a"
        fill-rule="evenodd"/>
    <path
        id="path_16"
        d="M 84.72 33.43 L 90.33 22.53 L 87.79 38.61 C 87.79 38.61 87.73 39.03 87.61 39.47 C 87.48 39.91 87.33 40.23 87.33 40.23 L 83.15 49.09 C 83.15 49.09 82.75 49.73 82.65 49.6 C 82.628 49.212 82.651 48.823 82.72 48.44 L 84.72 33.43 Z"
        fill="#4a4a4a"
        fill-rule="evenodd"/>
    <path
        id="path_17"
        d="M 81.59 53.87 C 81.85 52.97 82.16 52.48 82.16 52.48 L 86.31 44.62 C 86.31 44.62 86.8 43.63 86.89 43.67 C 86.99 43.7 86.89 44.82 86.89 44.82 L 84.32 60.45 L 80.34 68.42 C 80.34 68.42 79.77 69.42 79.68 69.42 C 79.58 69.42 79.6 68.42 79.6 68.42 L 81.2 55.74 C 81.2 55.74 81.32 54.77 81.59 53.87 Z"
        fill="#4a4a4a"
        fill-rule="evenodd"/>
    <path
        id="path_18"
        d="M 77.13 86.57 L 82.03 75.04 L 83.69 64.41 C 83.69 64.41 83.82 63.48 83.69 63.31 C 83.57 63.14 83.27 63.83 83.27 63.83 L 79.68 71.31 C 79.68 71.31 79.2 72.2 78.99 73 C 78.78 73.8 78.6 75.04 78.6 75.04 L 77.13 86.57 Z"
        fill="#4a4a4a"
        fill-rule="evenodd"/>
    <path
        id="path_19"
        d="M 10.1 21.07 L 20.22 35.97 L 20.78 51.2 C 20.78 51.2 20.76 52.28 20.34 52.3 C 19.91 52.33 19.42 51.3 19.42 51.3 L 11.72 38.2 C 11.72 38.2 11.32 37.6 11.14 36.8 C 10.95 35.99 10.93 34.78 10.93 34.78 L 10.1 21.07 Z"
        fill="#4a4a4a"
        fill-rule="evenodd"/>
    <path
        id="path_20"
        d="M 11.7 41.9 C 12.03 41.86 12.53 43.2 12.53 43.2 L 19.47 54.67 C 19.47 54.67 20.1 55.54 20.33 56.37 C 20.49 57.116 20.574 57.877 20.58 58.64 L 21.08 69.1 C 21.08 69.1 21.18 70.65 20.84 70.9 C 20.49 71.15 19.84 70 19.84 70 L 13.22 57.98 C 13.22 57.98 12.72 57.26 12.46 56.28 C 12.21 55.3 12.14 53.84 12.14 53.84 L 11.52 43.29 C 11.52 43.29 11.36 41.92 11.7 41.89 Z"
        fill="#4a4a4a"
        fill-rule="evenodd"/>
    <path
        id="path_21"
        d="M 21.52 89.53 L 21.06 77.34 L 20.81 75.44 L 20.01 73.49 L 13.14 60.13 C 13.14 60.13 12.67 59.3 12.54 59.3 C 12.4 59.3 12.32 60.13 12.32 60.13 L 13.14 71.53 L 21.52 89.53 Z"
        fill="#4a4a4a"
        fill-rule="evenodd"/>
</svg>
